<?xml version="1.0" encoding="utf-8"?><!-- Uploaded to: SVG Repo, www.svgrepo.com, Generator: SVG Repo Mixer Tools -->
<svg width="800px" height="800px" viewBox="0 0 64 64" xmlns="http://www.w3.org/2000/svg"><path d="m35.56 23.83c.13-.41-.08-.73-.47-.69-.6.06-.73.56-.57.75s.9.34 1.04-.06zm-7.82 5.75c.14-.41-.08-.73-.46-.69-.6.06-.74.56-.57.75s.9.36 1.03-.06zm2.19-2.88c.14-.4-.08-.72-.46-.68-.6.06-.74.56-.57.75s.9.34 1.03-.07zm-16.03.3c.14-.41-.08-.73-.46-.69-.6.06-.74.56-.58.75s.9.36 1.04-.06zm18.38-2.66c.13-.41-.08-.73-.47-.69-.6.06-.73.56-.57.75s.9.37 1.04-.04zm-.13 3.25c.14-.41-.08-.73-.46-.69-.6.06-.74.56-.58.75s.89.35 1.04-.04zm-12.09 2.74c.13-.41-.08-.73-.47-.69-.6.06-.73.56-.57.75s.9.34 1.04-.06zm-6.82.06c.16.19.9.34 1-.06s-.08-.73-.47-.69c-.56.06-.69.56-.53.75zm4.13-4.72c.14-.4-.08-.73-.46-.69-.6.07-.74.57-.58.75s.9.35 1.04-.06zm4.16-.37c.13-.41-.08-.73-.47-.69-.6.06-.73.56-.57.75s.9.34 1.04-.06zm-4.32 3c.14-.41-.08-.73-.46-.69-.6.06-.74.56-.57.75s.9.37 1.03-.03zm7.32 2.09c.13-.4-.08-.73-.47-.69-.6.07-.73.57-.57.75s.9.38 1.04-.03zm-3.79-2.28c.16.19.9.34 1-.06s-.08-.73-.47-.69c-.56.09-.69.64-.53.78zm4.66-.11c.14-.4-.08-.72-.46-.68-.6.06-.74.56-.58.75s.9.32 1.04-.07zm9.25-1.65c.16.19.9.34 1-.06s-.08-.73-.46-.69c-.57.04-.71.54-.54.73zm-8.16-.69c.14-.41-.08-.73-.46-.69-.6.07-.74.57-.57.75s.9.33 1.03-.08zm6.07-16c.13-.41-.08-.73-.47-.69-.6.07-.73.57-.57.75s.9.33 1.04-.08zm-.82 4.06c.16.19.9.35 1-.06s-.08-.73-.47-.69c-.56.03-.69.55-.53.73zm-.87-2.06c.14-.41-.08-.73-.46-.69-.6.07-.74.57-.58.75s.9.33 1.04-.08zm4.06 1.34c.14-.41-.08-.73-.46-.69-.6.06-.74.56-.57.75s.9.36 1.03-.06zm5.31-1.32c.14-.4-.08-.72-.46-.68-.6.06-.74.56-.57.75s.9.36 1.03-.05zm-12.24.21c.14-.41-.08-.73-.46-.69-.6.07-.74.57-.57.75s.86.35 1.03-.06zm11.59 12.11c.13-.4-.08-.72-.47-.68-.6.06-.73.56-.57.75s.9.29 1.04-.07zm-3.88-13.39c.14-.41-.08-.73-.46-.69-.6.06-.74.56-.57.75s.9.33 1.03-.06zm1.88 1.72c.13-.41-.08-.73-.47-.69-.6.06-.73.56-.57.75s.9.34 1.04-.06zm15.87 13.15c.14-.4-.08-.72-.46-.68-.6.06-.74.56-.57.75s.9.34 1.03-.07zm-9.34-1c.14-.4-.08-.72-.46-.68-.6.06-.74.56-.58.75s.92.31 1.04-.1zm-16.12-10.87c.14-.41-.08-.73-.46-.69-.6.06-.74.56-.57.75s.86.33 1.03-.06zm-9.38 4.31c.78-.22 1.78 0 3.44-.22a14.16 14.16 0 0 0 3.06-.53c.06-.09 0-.12-.25-.34s-1 0-3.44.12-3 0-3.25 0a.79.79 0 0 0 -.46 1.13c.14.15.08.06.86-.16zm23.1 8.35c.14-.41-.08-.73-.46-.69-.6.06-.74.56-.57.75s.86.34.99-.06zm-17-15.57c.14-.4-.08-.72-.46-.68-.6.06-.74.56-.57.75s.86.34.99-.07zm6.64 8.3c1.16-.15 2.57-.15 2.78-.22s0-.34-.21-.62-.57-.09-2 0-2-.14-2.07 0-.37.78-.21 1 .56-.05 1.71-.16zm-10.36-6.7a.48.48 0 0 0 -.53-.69c-.69.06-.85.56-.66.75s.99.34 1.19-.06zm9 31.72c-.6.06-.74.56-.58.75s.9.34 1-.07-.1-.7-.48-.7zm1.34-1.85c-.6.06-.74.56-.57.75s.9.35 1-.06-.11-.73-.49-.69zm4.81 2c-.6.06-.73.56-.57.75s.9.35 1-.06-.1-.73-.49-.69zm2.07-.69c-.6.07-.74.57-.58.75s.9.35 1-.06-.1-.73-.48-.69zm1.31 1.38c-.6.06-.74.56-.57.75s.9.34 1-.06-.11-.73-.49-.69zm-4.85-4c-.6.06-.73.56-.57.75s.9.34 1-.06-.11-.73-.49-.69zm-1.68 4.31c-.6.06-.74.56-.58.75s.9.35 1-.06-.1-.73-.48-.69zm1.28-1.5c-.6.06-.74.56-.57.75s.9.35 1-.06-.11-.73-.49-.69zm6-1.67c-.6.07-.74.57-.57.75s.9.35 1-.06-.05-.75-.43-.69zm-2.22.54c.13-.41-.08-.73-.47-.69-.6.06-.73.56-.57.75s.9.32 1.04-.08zm3.63 2.18c-.6.07-.74.57-.58.75s.9.35 1-.06-.04-.75-.42-.71zm1.14-12a27.93 27.93 0 0 1 -3.22-.25 32.87 32.87 0 0 0 -5.72.56c-.15.07 0 .85 0 .85s.6 0 2.72-.31a17.58 17.58 0 0 1 3.66 0 24.65 24.65 0 0 0 2.78.1c.31-.25.06-1.09-.22-1zm8.56-.31c-.21 0-.47.36-.4.53a37.26 37.26 0 0 0 4.34 3.53c.19 0 .16-.22.16-.53a27.49 27.49 0 0 0 -4.1-3.58zm2.44-2.44c0 .06-.5.47-.53.66a11 11 0 0 0 2.7 1.26c.18 0 .12-.28.12-.53s-2.29-1.73-2.29-1.44zm-4.28 4.03a1.7 1.7 0 0 0 -.5.75 58.13 58.13 0 0 0 5.22 4.72c.28.1.16-.15.34-.4s-4.88-4.91-5.06-5.07zm-11.55 1.58c-1.41 0-3.27-.17-3.41-.1s-.19.88.06 1a12.38 12.38 0 0 0 2.88-.06c1.22-.09 2.47.13 2.69 0s.12-.5.15-.72-.98-.12-2.37-.12zm6.2 8.5c-.6.06-.74.56-.58.75s.9.34 1-.06-.05-.77-.43-.69zm-17.84-7.72c-.22-.22-.59.09-2.53 0a12.14 12.14 0 0 1 -3.53-.66s-.25.5 0 .72a12.3 12.3 0 0 0 3.84.72 12 12 0 0 0 2.54 0c.5-.09-.1-.56-.32-.78zm-1.61 5.5c-.6.06-.74.56-.57.75s.9.34 1-.06-.05-.73-.43-.69zm-8.5 2.81c-.6.06-.74.56-.57.75s.9.35 1-.06-.05-.73-.43-.69zm-1.34-1.4c-.6.06-.74.56-.58.75s.9.34 1-.07-.04-.72-.42-.68zm3.33-2.44c.14-.41-.08-.73-.46-.69-.6.06-.74.56-.57.75s.9.34 1.03-.06zm-3.09-.28c.14-.41-.08-.73-.46-.69-.6.06-.74.56-.58.75s.89.39 1.04-.06zm3.44 2.59c-.6.06-.73.56-.57.75s.9.34 1-.06-.02-.73-.43-.69zm-5.4 2.28c-.6.06-.74.56-.58.75s.9.35 1-.06-.04-.73-.42-.69zm-2.35-4.56c-.6.06-.73.56-.57.75s.9.34 1-.06-.04-.73-.43-.69zm2.16 2.41c.14-.41-.08-.73-.46-.69-.6.06-.74.56-.57.75s.86.34 1.03-.06zm-2.95-16.27a10.78 10.78 0 0 0 -.34 4.81c.12.15.84-.13 1.06-.31s-.09-.57-.16-1.88a9.32 9.32 0 0 1 .39-2.62c0-.14-.87-.17-.95 0zm16.14 16.4c-.6.06-.74.56-.58.75s.9.35 1-.06-.04-.71-.42-.67zm-.35 1.63c-.6.06-.73.56-.57.75s.9.34 1-.07-.04-.71-.43-.66zm3.5-2.69c.13-.41-.08-.73-.47-.69-.6.06-.73.56-.57.75s.9.37 1.04-.04zm-7.15-1.13c-.6.07-.74.57-.58.75s.9.35 1-.06-.04-.71-.42-.67zm6.9 4.07c-.6.06-.73.56-.57.75s.9.34 1-.07-.04-.7-.43-.66zm-8.81-2.6c-.6.07-.74.57-.57.75s.9.35 1-.06-.05-.71-.43-.67zm2.91 2c-.6.06-.74.56-.58.75s.9.35 1-.06-.04-.74-.42-.7zm33.08-24.4c-1.5-3.07-3.47-5.72-9.16-9s-12.86-6.2-19.11-4.98c-3.57.68-6.85 1.31-10.91 4.43a36.12 36.12 0 0 0 -8.6 9.47c-1.75 2.82-4 5.32-3.28 14.22s3.93 12.28 7.22 15.5 10.37 6.08 17.62 7.53 10.5-.34 14.78-2.18a17.77 17.77 0 0 0 9.35-8.38c2.37-4.25 4.31-7.78 4.68-13.09a28 28 0 0 0 -2.59-13.53zm-39.75-7.58a16.43 16.43 0 0 1 5.91-3.4 20.35 20.35 0 0 1 4.57-1.13s-.41.6.09.72 1 .22 1.16 0-.09-.81.06-.84a21.4 21.4 0 0 1 7.91.72 55.11 55.11 0 0 1 10.22 3.9c.81.41 1.62 1 1.47 1.1a18.87 18.87 0 0 1 -2.66 0c-.63 0-3.53-.81-6.13-.25s-4.12 1.15-6.73 1.25a30.39 30.39 0 0 1 -5.56-.54c-1.09-.09-4.81-.71-6.28-.71s-3.87-.13-4.12-.19-.16-.41.09-.63zm-3.38 3.3a18.3 18.3 0 0 1 2.69-1.06 42 42 0 0 1 7.22.5c4.5.56 5.16 1.13 9.5.63s5.91-1.41 7.94-1.38 4.87.72 6.69.72 2.31-.22 2.65-.13a12.06 12.06 0 0 1 3.78 4.1c1.28 2.28.44 1.75.19 1.75h-1.44a29.65 29.65 0 0 0 -2-2.88c-.22-.06-.87.1-.84.19s2.09 2.69 1.9 2.78a9 9 0 0 1 -1.84.13c-.12 0-1.91-3.07-2.12-3.07s-.75.13-.72.29 1.75 2.93 1.59 2.9-.84.13-1 0-1.59-2.47-1.81-2.58-.91 0-.84.22a23.58 23.58 0 0 1 1.25 2.28c-.13.09-2.5-.5-5.07-1a10.6 10.6 0 0 0 -5.5-.22c-2.56.44-3.15 1.31-9 1.47s-6.34-1.09-11 .31a42.19 42.19 0 0 0 -6 2.28c-.54.1-1.07.32-1.1.1a23.79 23.79 0 0 1 4.88-8.33zm-6.31 17.83a18.25 18.25 0 0 1 -.12-4.28 10.57 10.57 0 0 1 1-3.53 11.13 11.13 0 0 0 4.29-1.35 17.17 17.17 0 0 1 8-1.87c3 0 3.84 1.25 9.34 0s7.66-1.8 10.84-1.22 4.18 1.65 8.5 1.34 5.9-.81 6.12-.59a15 15 0 0 1 1.13 3.78c-.19.09-2.57.19-3.1.28s-1.22.25-1.22.25a19 19 0 0 0 -2.06-2.22c-.22 0-.78.41-.69.53s2.13 1.82 1.88 1.94a11.19 11.19 0 0 1 -1.35.38 20.77 20.77 0 0 0 -2.34-2.38c-.28 0-.59.28-.56.41s2.31 2.18 2.15 2.31a8.26 8.26 0 0 1 -1.9.53c-.1-.06-1.13-1.81-1.63-1.81s-.72.19-.65.31 1.28 1.81 1.12 1.84a5.41 5.41 0 0 1 -2.94-.37 13.74 13.74 0 0 0 -5.56-.84c-1.56.18-3.31.75-7.62 2.65s-5.41 2.28-10 2.1-5.28-.6-7.82.18-4.75 1.8-4.81 1.63zm29.91 22.31a21.79 21.79 0 0 1 -6.53-.37 20.79 20.79 0 0 1 -3.38-1.35 18.76 18.76 0 0 1 5.63-.62c3 .18 3.37.59 5.68.65s3.69.13 3.69.13a15.74 15.74 0 0 1 -5.09 1.56zm11.87-5.25a18.5 18.5 0 0 0 -1.84-1.47c-.16 0-.63.31-.53.44s1.87 1.5 1.75 1.62a8.49 8.49 0 0 1 -1.72 1.1c-.09-.1-1.91-2.47-2.09-2.53s-.72.15-.72.25 2.37 2.56 2.18 2.72-.25.18-.37.15-.59-.81-.84-.84a4.06 4.06 0 0 0 -.79.06 17.19 17.19 0 0 0 -1.87-1.78c-.25-.06-.63 0-.56.22s1.53 1.87 1.34 1.87a7.44 7.44 0 0 1 -1.25 0c-.12-.06-1.3-1.7-1.62-1.7s-.69 0-.69.13.84 1.59.84 1.59a23.38 23.38 0 0 0 -5.56-.44c-2.66.19-3.47.44-4.91.44s-2.34-.06-3.12 0a11.75 11.75 0 0 0 -1.85.25 9.8 9.8 0 0 1 -1.53.28 20.21 20.21 0 0 1 -8.06-4.25s3.59-1.5 5.38-1.5 2.59 1.5 7.5 1.25 9.18-1.16 11.4-.88 1.53 1.06 5 .94 6.66-.91 6.66-.72-2.13 2.8-2.13 2.8zm4.25-5s-3.4.22-6.22.5-2.71.5-3.9.35a18.6 18.6 0 0 0 -6.28-.5 63.28 63.28 0 0 1 -8 .53c-4.25.06-6-1.47-9.6-.78a20.84 20.84 0 0 0 -5.46 1.87c-.38 0-1.66-1.53-3.07-3.53a10.84 10.84 0 0 1 -1.93-4.53 21.36 21.36 0 0 1 8.43-.94c4.85.31 5.75 1.81 11.35 1.53s8-.84 9.72-.72 5.78 3 9.93 3.41 6.22-.09 6.19.25a22.73 22.73 0 0 1 -1.16 2.59zm3.91-11.59c-.56 3.62-1.59 6.31-1.88 6.5a10.19 10.19 0 0 1 -1.93.5c-.22 0-.16.28-.44 0s-4.25-4.85-4.5-4.81-.78.28-.59.59 4.25 4.28 4 4.37a9.11 9.11 0 0 1 -2.5-.06c-.22-.12-2.47-3-2.72-3s-.63.13-.56.34 2.06 2.44 1.9 2.54a8.62 8.62 0 0 1 -4.15-1.16c-1.72-1-3.88-2.53-7-2.47s-4 1.22-7.65 1.16-6.88-1.5-11.63-1.47a34 34 0 0 0 -6.9.47c-.66.12-2 .9-2.19.81a13.3 13.3 0 0 1 -.72-3.13 13.16 13.16 0 0 1 7.09-2.34c3.66 0 4.88 1.09 10.47-.12s9.22-3.72 12.57-3.94 5.87 1.4 8.28 1.09 6.59-1.84 7.87-2 2.85-.28 2.94 0a13.47 13.47 0 0 1 .24 6.13z" fill="#1d1d1b"/></svg>